<svg width="24" height="24" viewBox="0 0 24 24" fill="none" xmlns="http://www.w3.org/2000/svg">
<circle cx="12" cy="12" r="12" fill="black"/>
<path d="M14.28 16.47C14.172 16.77 14.154 16.974 14.226 17.082C14.298 17.178 14.388 17.226 14.496 17.226C14.604 17.226 14.742 17.166 14.91 17.046C15.078 16.914 15.258 16.596 15.45 16.092L15.828 15.084H16.17L15.72 16.398C15.552 16.902 15.324 17.286 15.036 17.55C14.76 17.814 14.454 17.994 14.118 18.09C13.794 18.198 13.47 18.252 13.146 18.252C12.378 18.252 11.838 18.024 11.526 17.568C11.358 17.316 11.268 16.992 11.256 16.596C11.256 16.188 11.34 15.708 11.508 15.156L13.938 5.994C14.058 5.586 14.046 5.286 13.902 5.094C13.758 4.902 13.392 4.806 12.804 4.806L12.93 4.428C13.914 4.416 14.796 4.35 15.576 4.23C16.356 4.098 17.1 3.918 17.808 3.69L14.28 16.47ZM9.78 17.136C9.924 17.136 10.098 17.034 10.302 16.83C10.518 16.626 10.752 16.296 11.004 15.84C11.256 15.372 11.514 14.76 11.778 14.004C12.042 13.248 12.3 12.324 12.552 11.232L12.282 13.176C11.934 14.28 11.586 15.21 11.238 15.966C10.902 16.722 10.506 17.292 10.05 17.676C9.594 18.06 9.012 18.252 8.304 18.252C7.896 18.252 7.512 18.162 7.152 17.982C6.804 17.802 6.522 17.52 6.306 17.136C6.09 16.752 5.982 16.248 5.982 15.624C5.982 15.096 6.066 14.514 6.234 13.878C6.402 13.23 6.648 12.588 6.972 11.952C7.308 11.316 7.722 10.728 8.214 10.188C8.706 9.648 9.27 9.216 9.906 8.892C10.554 8.568 11.28 8.406 12.084 8.406C12.552 8.406 12.858 8.484 13.002 8.64C13.158 8.784 13.254 8.976 13.29 9.216L13.146 9.576C13.098 9.336 13.038 9.15 12.966 9.018C12.894 8.886 12.738 8.82 12.498 8.82C12.282 8.82 12.036 8.952 11.76 9.216C11.484 9.468 11.202 9.828 10.914 10.296C10.638 10.764 10.38 11.304 10.14 11.916C9.9 12.528 9.708 13.194 9.564 13.914C9.42 14.622 9.348 15.354 9.348 16.11C9.348 16.446 9.378 16.704 9.438 16.884C9.498 17.052 9.612 17.136 9.78 17.136Z" fill="white"/>
</svg>
