<svg width="42" height="42" viewBox="0 0 42 42" fill="none" xmlns="http://www.w3.org/2000/svg">
<circle cx="21" cy="21" r="21" fill="black"/>
<path d="M7.50781 27.7695C7.30469 27.9023 7.14844 27.8984 7.03906 27.7578C6.92969 27.6172 6.96484 27.4688 7.14453 27.3125C8.48828 26.0703 9.69141 25.2773 10.7539 24.9336C11.8164 24.5898 13.2148 24.9688 14.9492 26.0703C16.4883 27.0547 17.8516 27.4805 19.0391 27.3477C20.2266 27.207 21.0938 26.5 21.6406 25.2266C22.5781 23.0156 22.3008 20.8242 20.8086 18.6523C19.3242 16.4805 17.3438 15.1016 14.8672 14.5156C13.1484 14.1094 11.4297 14.2578 9.71094 14.9609C7.99219 15.6641 6.98047 16.7109 6.67578 18.1016C6.30078 19.7734 6.65625 20.9883 7.74219 21.7461C8.83594 22.5039 9.96094 22.7383 11.1172 22.4492C11.2656 22.4102 11.4141 22.3555 11.5625 22.2852C11.7734 22.1914 11.9219 22.2227 12.0078 22.3789C12.1016 22.5352 12.0391 22.6719 11.8203 22.7891C11.5234 22.9141 11.332 22.9883 11.2461 23.0117C10.1367 23.3633 8.91016 23.1719 7.56641 22.4375C6.22266 21.7031 5.55078 20.2695 5.55078 18.1367C5.55078 16.957 5.92188 15.8867 6.66406 14.9258C7.40625 13.957 8.35547 13.1836 9.51172 12.6055C10.668 12.0195 11.9375 11.6836 13.3203 11.5977C14.7109 11.5039 16.0742 11.6641 17.4102 12.0781C18.8555 12.625 20.0664 13.4141 21.043 14.4453C22.0273 15.4766 22.7422 16.6211 23.1875 17.8789C23.6328 19.1367 23.7891 20.4375 23.6562 21.7812C23.5312 23.125 23.0859 24.375 22.3203 25.5312C21.1484 27.2891 19.7227 28.457 18.043 29.0352C16.3633 29.6211 14.2266 29.2188 11.6328 27.8281C10.9766 27.4766 10.3047 27.2305 9.61719 27.0898C8.9375 26.9492 8.23438 27.1758 7.50781 27.7695ZM14.2344 25.0273C14.0156 25.1367 13.8633 25.1211 13.7773 24.9805C13.6914 24.832 13.7344 24.6953 13.9062 24.5703C14.8047 23.9609 14.9648 23.3281 14.3867 22.6719C13.8164 22.0156 13.2891 21.4766 12.8047 21.0547C11.2031 19.6875 10.6797 18.5 11.2344 17.4922C11.7891 16.4844 12.6797 15.6406 13.9062 14.9609C14.125 14.8516 14.2773 14.875 14.3633 15.0312C14.457 15.1797 14.4062 15.3164 14.2109 15.4414C13.0469 16.168 13.2812 17.2148 14.9141 18.582C16.3906 19.8164 17.043 20.9805 16.8711 22.0742C16.6992 23.168 15.8203 24.1523 14.2344 25.0273ZM33.9284 13.2031C34.1081 12.9844 34.2878 12.9492 34.4675 13.0977C34.655 13.2383 34.6433 13.4102 34.4323 13.6133C33.8386 14.1758 33.3425 14.6406 32.9441 15.0078C32.5534 15.3672 32.1902 15.6406 31.8542 15.8281C31.2448 16.1797 30.6472 16.2852 30.0613 16.1445C29.4831 15.9961 28.6628 15.6523 27.6003 15.1133C26.4909 14.5508 25.4831 14.25 24.5769 14.2109C23.6706 14.1641 22.823 14.5195 22.0339 15.2773C21.2605 16.0195 20.7566 16.7656 20.5222 17.5156C20.2956 18.2578 20.1941 19.0273 20.2175 19.8242C20.2722 21.6992 21.1042 23.2695 22.7136 24.5352C24.3308 25.793 26.3269 26.3906 28.7019 26.3281C30.3659 26.2969 31.7995 25.9219 33.0027 25.2031C34.2058 24.4844 34.7097 23.4102 34.5144 21.9805C34.3503 20.8477 33.7644 20.2461 32.7566 20.1758C31.7488 20.0977 30.6316 20.4492 29.405 21.2305C27.7956 22.2539 26.6277 22.707 25.9011 22.5898C25.1745 22.4727 24.1667 21.5273 22.8777 19.7539C22.7214 19.5508 22.7175 19.4062 22.8659 19.3203C23.0144 19.2344 23.1589 19.2969 23.2995 19.5078C23.7683 20.2031 24.3698 20.4141 25.1042 20.1406C25.8464 19.8594 26.6628 19.4609 27.5534 18.9453C28.155 18.6094 28.7214 18.3047 29.2527 18.0312C29.7839 17.75 30.4597 17.707 31.28 17.9023C32.0613 18.0977 32.823 18.5156 33.5652 19.1562C34.3152 19.7969 34.8073 20.6094 35.0417 21.5938C35.237 22.4531 35.2214 23.2344 34.9948 23.9375C34.7683 24.6406 34.4675 25.2734 34.0925 25.8359C33.3972 26.8906 32.4597 27.7266 31.28 28.3438C30.1081 28.9609 28.7683 29.2695 27.2605 29.2695C25.0339 29.2695 22.987 28.5234 21.1198 27.0312C19.2527 25.5391 18.3425 23.4766 18.3894 20.8438C18.4519 17.1172 21.2409 14.1523 26.7566 11.9492C27.0222 11.8398 27.2995 11.8555 27.5886 11.9961C30.0105 13.1914 31.6042 13.7773 32.3698 13.7539C33.1433 13.7305 33.6628 13.5469 33.9284 13.2031Z" fill="white"/>
</svg>
